PathFileType	4	(X/Y/Z)	E:\3-PhD\Data\MocapData\ElaboratedData\009\pre\dynamicElaborations\RunL3\RunL3.trc
DataRate	CameraRate	NumFrames	NumMarkers	Units	OrigDataRate	DataStartFrame
200	200	4	54	mm	200	301
Frame#	Time	FHD			LBHD			RBHD			C7			T10			CLAV			LSHO			LUUPA			LMUPA			LDUPA			LLEP			LMEP			LRAD			LUL			LRFIN			RSHO			RUPA1			RMUPA			RDUPA			RLEP			RMEP			RRAD			RUL			RUFIN			RASI			USACR			LSACR			RSACR			LTHI1			LTHI2			LTHI3			LTHI4			LTIB1			LTIB2			LTIB3			LTIB4			LLMAL			LHEE			LMT1			LMT2			RTHI			RTHI2			RTHI3			RTHI4			RLFC			RTIB1			RTIB2			RTIB3			RTIB4			RLMAL			RHEE			RMT1			RMT2			RMT5		
		X1	Y1	Z1	X2	Y2	Z2	X3	Y3	Z3	X4	Y4	Z4	X5	Y5	Z5	X6	Y6	Z6	X7	Y7	Z7	X8	Y8	Z8	X9	Y9	Z9	X10	Y10	Z10	X11	Y11	Z11	X12	Y12	Z12	X13	Y13	Z13	X14	Y14	Z14	X15	Y15	Z15	X16	Y16	Z16	X17	Y17	Z17	X18	Y18	Z18	X19	Y19	Z19	X20	Y20	Z20	X21	Y21	Z21	X22	Y22	Z22	X23	Y23	Z23	X24	Y24	Z24	X25	Y25	Z25	X26	Y26	Z26	X27	Y27	Z27	X28	Y28	Z28	X29	Y29	Z29	X30	Y30	Z30	X31	Y31	Z31	X32	Y32	Z32	X33	Y33	Z33	X34	Y34	Z34	X35	Y35	Z35	X36	Y36	Z36	X37	Y37	Z37	X38	Y38	Z38	X39	Y39	Z39	X40	Y40	Z40	X41	Y41	Z41	X42	Y42	Z42	X43	Y43	Z43	X44	Y44	Z44	X45	Y45	Z45	X46	Y46	Z46	X47	Y47	Z47	X48	Y48	Z48	X49	Y49	Z49	X50	Y50	Z50	X51	Y51	Z51	X52	Y52	Z52	X53	Y53	Z53	X54	Y54	Z54	

301	1.500000	-701.043316	1494.271242	577.019159	-865.184257	1504.061937	466.699804	-845.230954	1482.099856	587.166712	-926.927582	1381.516107	535.274607	-1107.048395	1080.790610	567.330674	-840.856401	1254.379272	510.650703	-888.247338	1335.435606	397.785908	-1005.388638	1203.618500	298.733199	-975.436366	1168.198467	288.090089	-1029.868555	1143.326837	276.847901	-1062.499960	1027.901948	253.345805	-1071.691910	1000.384085	326.028623	-807.920660	986.330432	292.428749	-815.206028	919.396648	260.990278	-748.467000	998.549453	244.858981	-831.758370	1329.100623	668.548513	-935.153352	1267.474029	799.570041	-936.331055	1221.386311	805.727502	-980.778593	1240.827699	839.085757	-1082.867377	1162.432084	902.083057	-1138.656495	1168.772805	851.526129	-1022.806353	924.026143	810.065627	-1051.389485	909.092180	873.420347	-960.231530	881.721373	829.869523	-976.337256	857.369060	644.198735	-1139.041204	980.672452	549.922098	-1141.704710	955.847105	515.259947	-1146.045565	943.093040	572.411989	-901.262208	751.351702	283.767055	-832.827654	700.918999	276.577352	-801.618760	708.817450	312.205311	-830.751823	645.082046	249.055410	-700.374418	394.821193	192.913581	-744.114691	365.987477	122.419489	-708.345153	360.861944	146.571234	-683.752283	279.217337	140.518023	-703.338406	131.994144	58.014656	-777.894129	72.021109	77.147937	-559.132381	69.060718	124.814840	-551.858093	75.472538	79.266388	-943.143243	609.007453	665.105890	-885.518426	579.281128	669.045400	-855.352458	595.956703	670.486739	-866.686030	502.914195	634.720435	-808.865048	427.336774	605.109565	-920.462297	319.596438	474.683333	-1029.386436	333.857956	484.849206	-1003.509173	303.364335	458.102339	-1030.951852	289.901200	415.281453	-1144.721304	292.865734	410.510823	-1198.734190	359.163883	368.904028	-1094.446280	170.623054	289.554912	-1104.944638	153.429662	326.412965	-1160.592893	159.651148	370.721505	
302	1.505000	-673.518328	1486.430061	581.079705	-837.057781	1496.192756	469.770417	-817.874108	1474.041819	590.495808	-899.237599	1375.005647	537.810205	-1083.540554	1075.206438	567.609871	-814.441640	1246.865327	513.735477	-860.991282	1328.968517	401.219655	-975.778970	1195.645230	301.284466	-944.784104	1161.232717	290.134515	-998.525677	1134.919622	278.914225	-1027.407654	1018.929109	254.258704	-1036.888757	990.806987	326.918324	-772.480777	988.494478	300.360488	-775.962830	921.623826	268.203286	-712.273782	1003.745166	254.578167	-805.103731	1321.039333	671.540897	-910.037725	1260.045444	801.915195	-912.049522	1214.087567	808.136719	-956.466384	1234.150426	841.209555	-1059.668942	1157.094154	903.273700	-1115.145899	1164.813636	852.515570	-1006.131596	917.688427	810.025044	-1034.477085	903.007030	872.805995	-944.836593	873.657782	829.496682	-954.334084	851.369284	646.905029	-1116.042817	974.744541	549.700184	-1118.242384	950.142167	514.818618	-1123.108067	937.046519	571.911651	-877.128931	747.541996	285.338390	-808.535925	697.406848	278.268265	-777.375465	705.630884	313.934243	-806.078268	641.685945	250.688179	-680.704217	386.948432	192.821250	-725.554767	360.290106	122.410857	-690.021490	353.667104	146.455184	-668.644145	271.608964	140.068334	-694.300628	126.175635	56.792354	-770.390193	68.281786	74.751771	-551.758918	64.152485	123.122761	-544.058689	70.082691	77.463694	-916.737497	607.649316	670.295301	-858.299389	579.758034	675.962175	-828.642195	597.395910	677.779299	-836.304273	503.640808	643.041803	-775.669206	429.735687	615.351519	-885.042866	321.837338	482.506910	-993.429990	334.900819	491.957764	-966.630177	304.570702	464.812044	-992.888334	290.857644	421.494911	-1106.693824	292.997154	415.228484	-1161.409039	357.969296	371.894074	-1051.897214	171.006956	296.297731	-1062.819524	153.966819	333.013681	-1119.165000	159.531960	376.549421	
303	1.510000	-646.278185	1478.628865	585.662195	-809.111782	1488.302960	473.193467	-790.844186	1465.974992	594.263222	-871.771420	1368.415173	540.508775	-1060.031584	1069.429253	567.872659	-788.136538	1239.274675	517.115457	-833.605309	1322.368704	404.680031	-945.622316	1187.343489	303.603711	-913.532797	1153.986034	292.122763	-966.440519	1126.145038	280.698475	-991.404643	1009.706947	255.108678	-1001.254571	980.970087	327.683811	-736.953315	990.551607	308.590671	-736.573927	923.891530	275.849692	-676.162862	1008.825206	264.696394	-778.840810	1312.876489	674.953159	-885.583788	1252.142131	804.402548	-888.556016	1206.248122	810.305419	-932.856630	1226.810187	843.313996	-1037.400146	1151.505214	904.205782	-1092.300588	1160.600319	853.095116	-990.506126	910.823186	810.902825	-1019.130648	896.642589	872.705690	-931.016249	864.744980	830.675337	-932.090790	845.251734	649.512397	-1092.993342	968.581204	549.674096	-1094.714563	944.170089	514.600673	-1100.052062	930.765202	571.632825	-853.700637	743.535189	286.719624	-785.200788	693.544564	279.180636	-753.728130	702.193757	314.414109	-782.687680	637.866948	251.749580	-661.823748	378.648131	192.288489	-707.975759	354.457668	122.073686	-672.737794	346.128007	145.949881	-655.153100	263.675264	139.285204	-687.598375	120.476641	55.322369	-765.090418	64.604289	72.086915	-546.652037	60.291758	121.219865	-538.500587	65.662865	75.473800	-890.054625	606.514123	675.720149	-830.887962	580.521473	683.063531	-801.782354	599.125398	685.141296	-805.816113	504.716764	651.651059	-742.511914	432.544921	625.815199	-849.605150	323.787916	490.313340	-956.998745	335.474951	499.235052	-929.090996	305.367692	471.782982	-953.977708	291.165270	427.852078	-1067.859718	292.118584	419.906523	-1123.296940	355.451690	374.517288	-1007.947122	170.358017	303.507500	-1019.326766	153.522364	340.048698	-1076.450428	158.350809	382.694415	
304	1.515000	-619.356897	1470.928003	590.781708	-781.350864	1480.464281	476.964914	-764.183771	1457.976671	598.479676	-844.569990	1361.797501	543.398549	-1036.532755	1063.613408	568.250724	-761.965645	1231.659362	520.823726	-806.083317	1315.691932	408.193596	-914.849441	1178.794672	305.715403	-881.637872	1146.517760	294.124282	-933.563158	1117.101826	282.239162	-954.509137	1000.346800	255.965421	-964.807817	970.980181	328.375611	-701.406442	992.535083	317.109178	-697.133885	926.236072	283.933002	-640.211829	1013.798676	275.184897	-752.989009	1304.712598	678.802852	-861.791382	1243.890602	807.062430	-865.827279	1197.990004	812.231833	-909.925369	1218.899284	845.423999	-1015.990575	1145.740706	904.932854	-1070.077376	1156.175248	853.327057	-975.890839	903.552079	812.609847	-1005.239982	890.141594	873.170272	-918.654502	855.196149	833.195605	-909.571302	839.132432	652.031140	-1069.918875	962.296779	549.965346	-1071.169168	938.050828	514.725716	-1076.899233	924.360376	571.697348	-831.146320	739.199934	287.721041	-762.977685	689.208653	279.121540	-730.828824	698.381177	313.417452	-760.751355	633.488662	252.077663	-643.795050	370.222289	191.279572	-691.410281	348.719373	121.404013	-656.520838	338.533001	145.019991	-643.241258	255.711264	138.158088	-682.950779	115.177308	53.685941	-761.664167	61.155621	69.311051	-543.497667	57.500198	119.254604	-534.894437	62.280624	73.458776	-863.182384	605.601709	681.366230	-803.378599	581.547908	690.334031	-774.860272	601.106545	692.576448	-775.331691	506.130187	660.489310	-709.489897	435.760752	636.456357	-814.351422	325.423949	498.097390	-920.104076	335.565669	506.615402	-890.940759	305.761566	479.017913	-914.280985	290.852921	434.421803	-1028.242783	290.242236	424.572251	-1084.376410	351.615679	376.823937	-962.667654	168.748814	311.233342	-974.540286	152.170622	347.578944	-1032.512903	156.178358	389.208111	
